<?xml version="1.0" encoding="UTF-8" standalone="no"?>
<!-- Created with Inkscape (http://www.inkscape.org/) -->

<svg
   version="1.1"
   id="svg2"
   width="512"
   height="512"
   viewBox="0 0 511.99999 512.00001"
   xmlns="http://www.w3.org/2000/svg"
   xmlns:svg="http://www.w3.org/2000/svg">
  <defs
     id="defs6">
    <linearGradient
       id="linearGradient7120">
      <stop
         style="stop-color:#202e40;stop-opacity:1;"
         offset="0"
         id="stop7118" />
    </linearGradient>
  </defs>
  <path
     id="path34283"
     style="opacity:1;fill:#bad6ff;stroke:#000000;stroke-width:5;stroke-opacity:0.365124"
     d="m 454.03142,82.628532 c 0,28.117688 -53.38487,78.920278 -50.91158,50.911578 4.44241,-50.307941 -29.58277,-43.080384 -50.91158,-50.911578 -26.39478,-9.69124 22.79389,-50.91158 50.91158,-50.911579 28.11769,-1e-6 50.91158,22.79389 50.91158,50.911579 z" />
  <g
     id="g1836"
     style="stroke:#000000;stroke-opacity:0.36512378;stroke-width:5;stroke-miterlimit:4;stroke-dasharray:none">
    <path
       id="path34283-1"
       style="opacity:1;fill:#bad6ff"
       d="M 113.32076,112.6571 C 62.501958,124.95504 84.610317,145.22066 79.010017,146.96783 60.920604,152.61131 44.699284,131.60639 44.69928,112.6571 c -2e-6,-18.949298 15.361439,-34.31074 34.310737,-34.310741 18.9493,-3e-6 52.728423,29.853741 34.310743,34.310741 z" />
  </g>
  <path
     id="path849-3"
     style="opacity:1;fill:#bad6ff;stroke:#000000;stroke-width:5;stroke-opacity:0.365124"
     d="m 292.86019,252.222 c 14.10225,42.18429 -36.05742,80.53649 -80.53649,80.53649 -44.47907,0 -80.53649,-36.05742 -80.53649,-80.53649 0,-44.47907 77.23152,-124.89261 80.53649,-80.53649 4.55674,61.15611 70.70293,51.12121 80.53649,80.53649 z" />
  <path
     id="path849-3-4"
     style="opacity:1;fill:#e3776f;stroke:#000000;stroke-width:5;stroke-opacity:0.365124"
     d="m 462.77723,425.24542 c 0,29.30749 -23.75841,53.0659 -53.0659,53.0659 -29.30748,0 -80.18598,-41.95602 -53.06589,-53.0659 24.19781,-9.91275 63.07691,-21.55182 53.06589,-53.0659 -8.87311,-27.932 53.0659,23.75841 53.0659,53.0659 z" />
</svg>
