<?xml version="1.0" encoding="UTF-8" standalone="no"?>
<svg
   width="1500"
   height="500"
   version="1.1"
   viewBox="0 0 1500 500"
   id="svg11"
   xmlns="http://www.w3.org/2000/svg"
   xmlns:svg="http://www.w3.org/2000/svg">
  <defs
     id="defs11" />
  <rect
     x="115.958"
     y="189.28336"
     width="40.924"
     height="304.18002"
     stroke-miterlimit="26.1"
     stroke-width="13.2936"
     id="rect11"
     style="fill:#b0bbc6;fill-opacity:1" />
  <rect
     y="456.3671"
     width="1500"
     height="43.632915"
     id="rect1"
     x="0"
     style="fill:#b0bbc6;stroke-width:1.47704" />
  <rect
     x="232.07001"
     y="172.63"
     width="265.79001"
     height="20"
     id="rect2"
     style="fill:#b0bbc6" />
  <rect
     x="617.23999"
     y="82.596001"
     width="303.29999"
     height="20"
     id="rect3"
     style="fill:#b0bbc6" />
  <rect
     x="138.67999"
     y="102.6"
     width="400"
     height="20"
     id="rect4"
     style="fill:#b0bbc6" />
  <rect
     x="493.48264"
     y="35.127338"
     width="281.64001"
     height="20"
     id="rect5"
     style="fill:#b0bbc6" />
  <rect
     x="751.00342"
     width="220.03999"
     height="20"
     id="rect6"
     y="122.6"
     style="fill:#b0bbc6" />
  <rect
     x="654.97998"
     y="185.72"
     width="293.64001"
     height="20"
     id="rect7"
     style="fill:#b0bbc6" />
  <rect
     x="230.92155"
     y="32.569992"
     width="174.53999"
     height="20"
     id="rect9"
     style="fill:#b0bbc6" />
  <circle
     cx="1320"
     cy="122.6"
     r="93.123001"
     id="circle10"
     style="fill:#becad5;fill-opacity:1" />
  <rect
     x="998.01001"
     y="112.6"
     width="321.95999"
     height="20"
     id="rect10"
     style="fill:#b0bbc6" />
  <rect
     x="1061.8828"
     y="195.72"
     width="366.67001"
     height="20"
     id="rect8"
     style="fill:#b0bbc6" />
  <rect
     style="fill:#9fa7ae;fill-opacity:1;stroke:none;stroke-width:11.0698;stroke-miterlimit:26.1"
     id="rect13-3"
     width="34.292976"
     height="13.699179"
     x="139.7355"
     y="-324.02264"
     transform="scale(1,-1)" />
  <rect
     style="fill:#9fa7ae;fill-opacity:1;stroke:none;stroke-width:11.0698;stroke-miterlimit:26.1"
     id="rect13-3-6"
     width="34.292976"
     height="13.699179"
     x="98.811508"
     y="-233.39328"
     transform="scale(1,-1)" />
  <rect
     style="fill:#9fa7ae;fill-opacity:1;stroke:none;stroke-width:11.0698;stroke-miterlimit:26.1"
     id="rect13-3-5"
     width="34.292976"
     height="13.699179"
     x="90.345886"
     y="-397.04446"
     transform="scale(1,-1)" />
  <rect
     style="fill:#9fa7ae;fill-opacity:1;stroke:none;stroke-width:62.2481;stroke-miterlimit:26.1"
     id="rect13-3-56"
     width="1500"
     height="20.750856"
     x="0"
     y="-500"
     transform="scale(1,-1)" />
  <rect
     style="fill:#9fa7ae;fill-opacity:1;stroke:none;stroke-width:11.0698;stroke-miterlimit:26.1"
     id="rect13-3-9"
     width="34.292976"
     height="13.699179"
     x="139.73552"
     y="-202.98254"
     transform="scale(1,-1)" />
  <rect
     style="fill:#9fa7ae;fill-opacity:1;stroke:none;stroke-width:11.0698;stroke-miterlimit:26.1"
     id="rect13-3-9-3"
     width="34.292976"
     height="13.699179"
     x="97.35733"
     y="-195.78088"
     transform="scale(1,-1)" />
  <rect
     style="fill:#9fa7ae;fill-opacity:1;stroke:none;stroke-width:11.0698;stroke-miterlimit:26.1"
     id="rect13-3-9-6"
     width="34.292976"
     height="13.699179"
     x="138.5787"
     y="-230.13203"
     transform="scale(1,-1)" />
  <rect
     style="fill:#9fa7ae;fill-opacity:1;stroke:none;stroke-width:11.0698;stroke-miterlimit:26.1"
     id="rect13-3-9-7"
     width="34.292976"
     height="13.699179"
     x="92.777176"
     y="-280.5137"
     transform="scale(1,-1)" />
  <rect
     style="fill:#9fa7ae;fill-opacity:1;stroke:none;stroke-width:11.0698;stroke-miterlimit:26.1"
     id="rect13-5"
     width="34.292976"
     height="13.699179"
     x="183.63857"
     y="-377.94839"
     transform="scale(1,-1)" />
  <rect
     style="fill:#9fa7ae;fill-opacity:1;stroke:none;stroke-width:11.0698;stroke-miterlimit:26.1"
     id="rect13-6"
     width="34.292976"
     height="13.699179"
     x="37.498611"
     y="-316.8804"
     transform="scale(1,-1)" />
  <rect
     style="fill:#b0bbc6;fill-opacity:1;stroke:none;stroke-width:22.8877;stroke-miterlimit:26.1"
     id="rect13-27"
     width="81.993561"
     height="24.492954"
     x="54.645103"
     y="-341.37335"
     transform="scale(1,-1)" />
  <rect
     style="fill:#b0bbc6;fill-opacity:1;stroke:none;stroke-width:19.7919;stroke-miterlimit:26.1"
     id="rect13-62"
     width="61.312893"
     height="24.492954"
     x="139.47215"
     y="-402.44135"
     transform="scale(1,-1)" />
  <rect
     style="fill:#b0bbc6;fill-opacity:1;stroke:none;stroke-width:20.7144;stroke-miterlimit:26.1"
     id="rect13-61"
     width="67.161743"
     height="24.492954"
     x="-212.4424"
     y="-284.29529"
     transform="scale(-1)" />
  <rect
     style="fill:#9fa7ae;fill-opacity:1;stroke:none;stroke-width:11.0698;stroke-miterlimit:26.1"
     id="rect13-02"
     width="34.292976"
     height="13.699179"
     x="139.7355"
     y="-249.72235"
     transform="scale(1,-1)" />
  <rect
     style="fill:#9fa7ae;fill-opacity:1;stroke:none;stroke-width:11.0698;stroke-miterlimit:26.1"
     id="rect13-3-9-5"
     width="34.292976"
     height="13.699179"
     x="168.3497"
     y="-270.20837"
     transform="scale(1,-1)" />
  <rect
     style="fill:#9fa7ae;fill-opacity:1;stroke:none;stroke-width:11.0698;stroke-miterlimit:26.1"
     id="rect13-3-9-5-36"
     width="34.292976"
     height="13.699179"
     x="-456.3671"
     y="-815.36127"
     transform="matrix(0,-1,-1,0,0,0)" />
  <rect
     style="fill:#9fa7ae;fill-opacity:1;stroke:none;stroke-width:11.0698;stroke-miterlimit:26.1"
     id="rect13-3-9-5-36-23"
     width="34.292976"
     height="13.699179"
     x="-456.86673"
     y="-747.8111"
     transform="matrix(0,-1,-1,0,0,0)" />
  <rect
     style="fill:#9fa7ae;fill-opacity:1;stroke:none;stroke-width:11.0698;stroke-miterlimit:26.1"
     id="rect13-3-9-5-36-7"
     width="34.292976"
     height="13.699179"
     x="-456.3671"
     y="-882.91144"
     transform="matrix(0,-1,-1,0,0,0)" />
  <rect
     style="fill:#9fa7ae;fill-opacity:1;stroke:none;stroke-width:11.0698;stroke-miterlimit:26.1"
     id="rect13-3-9-5-36-5"
     width="34.292976"
     height="13.699179"
     x="-456.3671"
     y="-950.46161"
     transform="matrix(0,-1,-1,0,0,0)" />
  <rect
     style="fill:#9fa7ae;fill-opacity:1;stroke:none;stroke-width:11.0698;stroke-miterlimit:26.1"
     id="rect13-3-9-5-36-7-3"
     width="34.292976"
     height="13.699179"
     x="-456.3671"
     y="-1018.0118"
     transform="matrix(0,-1,-1,0,0,0)" />
  <rect
     style="fill:#9fa7ae;fill-opacity:1;stroke:none;stroke-width:11.0698;stroke-miterlimit:26.1"
     id="rect13-3-9-5-36-56"
     width="34.292976"
     height="13.699179"
     x="-456.3671"
     y="-1085.562"
     transform="matrix(0,-1,-1,0,0,0)" />
  <rect
     style="fill:#9fa7ae;fill-opacity:1;stroke:none;stroke-width:11.0698;stroke-miterlimit:26.1"
     id="rect13-3-9-5-36-1"
     width="34.292976"
     height="13.699179"
     x="-461.18301"
     y="-96.147705"
     transform="matrix(0,-1,-1,0,0,0)" />
  <rect
     style="fill:#9fa7ae;fill-opacity:1;stroke:none;stroke-width:11.0698;stroke-miterlimit:26.1"
     id="rect13-3-9-5-36-7-8"
     width="34.292976"
     height="13.699179"
     x="-461.18301"
     y="-163.69781"
     transform="matrix(0,-1,-1,0,0,0)" />
  <rect
     style="fill:#9fa7ae;fill-opacity:1;stroke:none;stroke-width:11.0698;stroke-miterlimit:26.1"
     id="rect13-3-9-5-36-5-7"
     width="34.292976"
     height="13.699179"
     x="-461.18301"
     y="-231.24799"
     transform="matrix(0,-1,-1,0,0,0)" />
  <rect
     style="fill:#9fa7ae;fill-opacity:1;stroke:none;stroke-width:11.0698;stroke-miterlimit:26.1"
     id="rect13-3-9-5-36-7-3-92"
     width="34.292976"
     height="13.699179"
     x="-461.18301"
     y="-298.79816"
     transform="matrix(0,-1,-1,0,0,0)" />
  <rect
     style="fill:#9fa7ae;fill-opacity:1;stroke:none;stroke-width:11.0698;stroke-miterlimit:26.1"
     id="rect13-3-9-5-36-56-0"
     width="34.292976"
     height="13.699179"
     x="-461.18301"
     y="-366.34845"
     transform="matrix(0,-1,-1,0,0,0)" />
  <rect
     style="fill:#9fa7ae;fill-opacity:1;stroke:none;stroke-width:11.0698;stroke-miterlimit:26.1"
     id="rect13-3-9-5-36-7-2"
     width="34.292976"
     height="13.699179"
     x="-456.3671"
     y="-1153.1121"
     transform="matrix(0,-1,-1,0,0,0)" />
  <rect
     style="fill:#9fa7ae;fill-opacity:1;stroke:none;stroke-width:11.0698;stroke-miterlimit:26.1"
     id="rect13-3-9-5-36-5-9"
     width="34.292976"
     height="13.699179"
     x="-456.3671"
     y="-1220.6624"
     transform="matrix(0,-1,-1,0,0,0)" />
  <rect
     style="fill:#9fa7ae;fill-opacity:1;stroke:none;stroke-width:11.0698;stroke-miterlimit:26.1"
     id="rect13-3-9-5-36-7-3-1"
     width="34.292976"
     height="13.699179"
     x="-456.3671"
     y="-1288.2124"
     transform="matrix(0,-1,-1,0,0,0)" />
  <rect
     style="fill:#9fa7ae;fill-opacity:1;stroke:none;stroke-width:11.0698;stroke-miterlimit:26.1"
     id="rect13-3-9-5-36-2"
     width="34.292976"
     height="13.699179"
     x="-456.3671"
     y="-1220.6624"
     transform="matrix(0,-1,-1,0,0,0)" />
  <rect
     style="fill:#9fa7ae;fill-opacity:1;stroke:none;stroke-width:11.0698;stroke-miterlimit:26.1"
     id="rect13-3-9-5-36-7-7"
     width="34.292976"
     height="13.699179"
     x="-456.3671"
     y="-1288.2126"
     transform="matrix(0,-1,-1,0,0,0)" />
  <rect
     style="fill:#9fa7ae;fill-opacity:1;stroke:none;stroke-width:11.0698;stroke-miterlimit:26.1"
     id="rect13-3-9-5-36-5-0"
     width="34.292976"
     height="13.699179"
     x="-456.3671"
     y="-1355.7627"
     transform="matrix(0,-1,-1,0,0,0)" />
  <rect
     style="fill:#9fa7ae;fill-opacity:1;stroke:none;stroke-width:11.0698;stroke-miterlimit:26.1"
     id="rect13-3-9-5-36-7-3-9"
     width="34.292976"
     height="13.699179"
     x="-456.3671"
     y="-1423.313"
     transform="matrix(0,-1,-1,0,0,0)" />
  <rect
     style="fill:#9fa7ae;fill-opacity:1;stroke:none;stroke-width:11.0698;stroke-miterlimit:26.1"
     id="rect13-3-9-5-3"
     width="34.292976"
     height="13.699179"
     x="190.10542"
     y="-290.81906"
     transform="scale(1,-1)" />
  <rect
     style="fill:#9fa7ae;fill-opacity:1;stroke:none;stroke-width:11.0698;stroke-miterlimit:26.1"
     id="rect13-3-9-5-5"
     width="34.292976"
     height="13.699179"
     x="97.35733"
     y="-307.99463"
     transform="scale(1,-1)" />
  <rect
     style="fill:#9fa7ae;fill-opacity:1;stroke:none;stroke-width:11.0698;stroke-miterlimit:26.1"
     id="rect13-3-9-5-6"
     width="34.292976"
     height="13.699179"
     x="36.670303"
     y="-342.34576"
     transform="scale(1,-1)" />
  <rect
     style="fill:#9fa7ae;fill-opacity:1;stroke:none;stroke-width:11.0698;stroke-miterlimit:26.1"
     id="rect13-3-9-5-2"
     width="34.292976"
     height="13.699179"
     x="85.906944"
     y="-348.07095"
     transform="scale(1,-1)" />
  <rect
     style="fill:#9fa7ae;fill-opacity:1;stroke:none;stroke-width:11.0698;stroke-miterlimit:26.1"
     id="rect13-3-9-5-9"
     width="34.292976"
     height="13.699179"
     x="99.647408"
     y="-373.26181"
     transform="scale(1,-1)" />
  <rect
     style="fill:#9fa7ae;fill-opacity:1;stroke:none;stroke-width:11.0698;stroke-miterlimit:26.1"
     id="rect13-3-9-5-1"
     width="34.292976"
     height="13.699179"
     x="136.28862"
     y="-352.65112"
     transform="scale(1,-1)" />
  <rect
     style="fill:#9fa7ae;fill-opacity:1;stroke:none;stroke-width:11.0698;stroke-miterlimit:26.1"
     id="rect13-3-9-5-27"
     width="34.292976"
     height="13.699179"
     x="135.14359"
     y="-389.29233"
     transform="scale(1,-1)" />
  <rect
     style="fill:#9fa7ae;fill-opacity:1;stroke:none;stroke-width:11.0698;stroke-miterlimit:26.1"
     id="rect13-3-9-5-0"
     width="34.292976"
     height="13.699179"
     x="177.50999"
     y="-405.32288"
     transform="scale(1,-1)" />
  <rect
     style="fill:#afb7c6;fill-opacity:1;stroke-width:1.0526"
     id="rect459"
     width="263.19354"
     height="154.22124"
     x="391.78644"
     y="310.32346" />
  <path
     style="fill:#9fabb6;fill-opacity:1"
     d="M 353.13246,310.32346 H 699.6141 L 523.38321,205.72 Z"
     id="path2236" />
  <rect
     style="fill:#9fa7ae;fill-opacity:1"
     id="rect2572"
     width="66.644798"
     height="88.87291"
     x="418.23413"
     y="352.65112" />
  <rect
     style="fill:#9fa7ae;fill-opacity:1"
     id="rect2574"
     width="98.862419"
     height="62.901928"
     x="529.07025"
     y="334.18564" />
</svg>
