<?xml version="1.0" encoding="UTF-8" standalone="no"?>
<svg
   width="1500"
   height="500"
   version="1.1"
   viewBox="0 0 1500 500"
   id="svg11"
   xmlns="http://www.w3.org/2000/svg"
   xmlns:svg="http://www.w3.org/2000/svg">
  <defs
     id="defs11" />
  <rect
     x="134.71515"
     y="189.28336"
     width="22.166847"
     height="304.18002"
     stroke-miterlimit="26.1"
     stroke-width="9.78375"
     id="rect11"
     style="fill:#797995;fill-opacity:1" />
  <rect
     y="456.3671"
     width="1500"
     height="43.632915"
     id="rect1"
     x="0"
     style="fill:#797995;stroke-width:1.47704;fill-opacity:1" />
  <rect
     x="232.07001"
     y="172.63"
     width="265.79001"
     height="20"
     id="rect2"
     style="fill:#797995;fill-opacity:1" />
  <rect
     x="617.23999"
     y="82.596001"
     width="303.29999"
     height="20"
     id="rect3"
     style="fill:#797995;fill-opacity:1" />
  <rect
     x="138.67999"
     y="102.6"
     width="400"
     height="20"
     id="rect4"
     style="fill:#797995;fill-opacity:1" />
  <rect
     x="493.48264"
     y="35.127338"
     width="281.64001"
     height="20"
     id="rect5"
     style="fill:#797995;fill-opacity:1" />
  <rect
     x="875.25616"
     width="220.03999"
     height="20"
     id="rect6"
     y="135.40956"
     style="fill:#797995;fill-opacity:1" />
  <rect
     x="654.97998"
     y="185.72"
     width="293.64001"
     height="20"
     id="rect7"
     style="fill:#797995;fill-opacity:1" />
  <rect
     x="230.92155"
     y="32.569992"
     width="174.53999"
     height="20"
     id="rect9"
     style="fill:#797995;fill-opacity:1" />
  <circle
     cx="1320"
     cy="122.6"
     r="93.123001"
     id="circle10"
     style="fill:#797995;fill-opacity:1" />
  <rect
     x="861.02344"
     y="32.437752"
     width="321.95999"
     height="20"
     id="rect10"
     style="fill:#797995;fill-opacity:1" />
  <rect
     x="1064.4447"
     y="248.23921"
     width="366.67001"
     height="20"
     id="rect8"
     style="fill:#797995;fill-opacity:1" />
  <rect
     style="fill:#797995;fill-opacity:1;stroke:none;stroke-width:62.2481;stroke-miterlimit:26.1"
     id="rect13-3-56"
     width="1500"
     height="20.750856"
     x="0"
     y="-500"
     transform="scale(1,-1)" />
  <rect
     style="fill:#797995;fill-opacity:1;stroke:none;stroke-width:16.2105;stroke-miterlimit:26.1"
     id="rect13-61"
     width="67.161743"
     height="15"
     x="-328.06265"
     y="-70.384918"
     transform="rotate(-135)" />
  <rect
     style="fill:#797995;fill-opacity:1;stroke:none;stroke-width:16.5495;stroke-miterlimit:26.1"
     id="rect13-61-9"
     width="70"
     height="15"
     x="-422.31973"
     y="-130.45511"
     transform="rotate(-135)" />
  <rect
     style="fill:#797995;fill-opacity:1;stroke:none;stroke-width:16.2105;stroke-miterlimit:26.1"
     id="rect13-61-3"
     width="67.161743"
     height="15"
     x="55.384918"
     y="-260.90091"
     transform="rotate(135)" />
  <rect
     style="fill:#797995;fill-opacity:1;stroke:none;stroke-width:16.5495;stroke-miterlimit:26.1"
     id="rect13-61-3-5"
     width="70"
     height="15"
     x="146.12943"
     y="-336.64542"
     transform="rotate(135)" />
  <rect
     style="fill:#797995;fill-opacity:1;stroke:none;stroke-width:11.0698;stroke-miterlimit:26.1"
     id="rect13-3-9-5-36"
     width="34.292976"
     height="13.699179"
     x="-456.3671"
     y="-815.36127"
     transform="matrix(0,-1,-1,0,0,0)" />
  <rect
     style="fill:#797995;fill-opacity:1;stroke:none;stroke-width:11.0698;stroke-miterlimit:26.1"
     id="rect13-3-9-5-36-23"
     width="34.292976"
     height="13.699179"
     x="-456.86673"
     y="-747.8111"
     transform="matrix(0,-1,-1,0,0,0)" />
  <rect
     style="fill:#797995;fill-opacity:1;stroke:none;stroke-width:11.0698;stroke-miterlimit:26.1"
     id="rect13-3-9-5-36-7"
     width="34.292976"
     height="13.699179"
     x="-456.3671"
     y="-882.91144"
     transform="matrix(0,-1,-1,0,0,0)" />
  <rect
     style="fill:#797995;fill-opacity:1;stroke:none;stroke-width:11.0698;stroke-miterlimit:26.1"
     id="rect13-3-9-5-36-5"
     width="34.292976"
     height="13.699179"
     x="-456.3671"
     y="-950.46161"
     transform="matrix(0,-1,-1,0,0,0)" />
  <rect
     style="fill:#797995;fill-opacity:1;stroke:none;stroke-width:11.0698;stroke-miterlimit:26.1"
     id="rect13-3-9-5-36-7-3"
     width="34.292976"
     height="13.699179"
     x="-456.3671"
     y="-1018.0118"
     transform="matrix(0,-1,-1,0,0,0)" />
  <rect
     style="fill:#797995;fill-opacity:1;stroke:none;stroke-width:11.0698;stroke-miterlimit:26.1"
     id="rect13-3-9-5-36-70"
     width="34.292976"
     height="13.699179"
     x="-459.23383"
     y="-128.58623"
     transform="matrix(0,-1,-1,0,0,0)" />
  <rect
     style="fill:#797995;fill-opacity:1;stroke:none;stroke-width:11.0698;stroke-miterlimit:26.1"
     id="rect13-3-9-5-36-23-9"
     width="34.292976"
     height="13.699179"
     x="-459.73346"
     y="-61.03606"
     transform="matrix(0,-1,-1,0,0,0)" />
  <rect
     style="fill:#797995;fill-opacity:1;stroke:none;stroke-width:11.0698;stroke-miterlimit:26.1"
     id="rect13-3-9-5-36-7-36"
     width="34.292976"
     height="13.699179"
     x="-459.23383"
     y="-196.1364"
     transform="matrix(0,-1,-1,0,0,0)" />
  <rect
     style="fill:#797995;fill-opacity:1;stroke:none;stroke-width:11.0698;stroke-miterlimit:26.1"
     id="rect13-3-9-5-36-5-06"
     width="34.292976"
     height="13.699179"
     x="-459.23383"
     y="-263.68658"
     transform="matrix(0,-1,-1,0,0,0)" />
  <rect
     style="fill:#797995;fill-opacity:1;stroke:none;stroke-width:11.0698;stroke-miterlimit:26.1"
     id="rect13-3-9-5-36-7-3-2"
     width="34.292976"
     height="13.699179"
     x="-459.23383"
     y="-331.23676"
     transform="matrix(0,-1,-1,0,0,0)" />
  <rect
     style="fill:#797995;fill-opacity:1;stroke:none;stroke-width:11.0698;stroke-miterlimit:26.1"
     id="rect13-3-9-5-36-56"
     width="34.292976"
     height="13.699179"
     x="-456.3671"
     y="-1085.562"
     transform="matrix(0,-1,-1,0,0,0)" />
  <rect
     style="fill:#797995;fill-opacity:1;stroke:none;stroke-width:11.0698;stroke-miterlimit:26.1"
     id="rect13-3-9-5-36-7-2"
     width="34.292976"
     height="13.699179"
     x="-456.3671"
     y="-1153.1121"
     transform="matrix(0,-1,-1,0,0,0)" />
  <rect
     style="fill:#797995;fill-opacity:1;stroke:none;stroke-width:11.0698;stroke-miterlimit:26.1"
     id="rect13-3-9-5-36-5-9"
     width="34.292976"
     height="13.699179"
     x="-456.3671"
     y="-1220.6624"
     transform="matrix(0,-1,-1,0,0,0)" />
  <rect
     style="fill:#797995;fill-opacity:1;stroke:none;stroke-width:11.0698;stroke-miterlimit:26.1"
     id="rect13-3-9-5-36-7-3-1"
     width="34.292976"
     height="13.699179"
     x="-456.3671"
     y="-1288.2124"
     transform="matrix(0,-1,-1,0,0,0)" />
  <rect
     style="fill:#797995;fill-opacity:1;stroke:none;stroke-width:11.0698;stroke-miterlimit:26.1"
     id="rect13-3-9-5-36-2"
     width="34.292976"
     height="13.699179"
     x="-456.3671"
     y="-1220.6624"
     transform="matrix(0,-1,-1,0,0,0)" />
  <rect
     style="fill:#797995;fill-opacity:1;stroke:none;stroke-width:11.0698;stroke-miterlimit:26.1"
     id="rect13-3-9-5-36-7-7"
     width="34.292976"
     height="13.699179"
     x="-456.3671"
     y="-1288.2126"
     transform="matrix(0,-1,-1,0,0,0)" />
  <rect
     style="fill:#797995;fill-opacity:1;stroke:none;stroke-width:11.0698;stroke-miterlimit:26.1"
     id="rect13-3-9-5-36-5-0"
     width="34.292976"
     height="13.699179"
     x="-456.3671"
     y="-1355.7627"
     transform="matrix(0,-1,-1,0,0,0)" />
  <rect
     style="fill:#797995;fill-opacity:1;stroke:none;stroke-width:11.0698;stroke-miterlimit:26.1"
     id="rect13-3-9-5-36-7-3-9"
     width="34.292976"
     height="13.699179"
     x="-456.3671"
     y="-1423.313"
     transform="matrix(0,-1,-1,0,0,0)" />
  <rect
     style="fill:#797995;fill-opacity:1;stroke-width:1.12748"
     id="rect459"
     width="263.19354"
     height="176.94392"
     x="391.78644"
     y="287.60077" />
  <path
     style="fill:#797995;fill-opacity:1"
     d="M 353.13246,310.32346 H 699.6141 L 523.38321,205.72 Z"
     id="path2236" />
  <rect
     style="fill:#797995;fill-opacity:1"
     id="rect2572"
     width="66.644798"
     height="88.87291"
     x="418.23413"
     y="352.65112" />
  <rect
     style="fill:#797995;fill-opacity:1"
     id="rect2574"
     width="98.862419"
     height="62.901928"
     x="529.07025"
     y="334.18564" />
</svg>
