<?xml version="1.0" encoding="UTF-8" standalone="no"?>
<svg
   width="1500"
   height="500"
   version="1.1"
   viewBox="0 0 1500 500"
   id="svg11"
   xmlns="http://www.w3.org/2000/svg"
   xmlns:svg="http://www.w3.org/2000/svg">
  <defs
     id="defs11" />
  <rect
     x="115.958"
     y="189.28336"
     width="40.924"
     height="304.18002"
     stroke-miterlimit="26.1"
     stroke-width="13.2936"
     id="rect11"
     style="fill:#b0bbc6;fill-opacity:1" />
  <rect
     y="456.3671"
     width="1500"
     height="43.632915"
     id="rect1"
     x="0"
     style="fill:#b0bbc6;stroke-width:1.47704" />
  <rect
     x="232.07001"
     y="172.63"
     width="265.79001"
     height="20"
     id="rect2"
     style="fill:#b0bbc6" />
  <rect
     x="617.23999"
     y="82.596001"
     width="303.29999"
     height="20"
     id="rect3"
     style="fill:#b0bbc6" />
  <rect
     x="138.67999"
     y="102.6"
     width="400"
     height="20"
     id="rect4"
     style="fill:#b0bbc6" />
  <rect
     x="364.97"
     y="32.557999"
     width="281.64001"
     height="20"
     id="rect5"
     style="fill:#b0bbc6" />
  <rect
     x="777.96997"
     width="220.03999"
     height="20"
     id="rect6"
     y="0"
     style="fill:#b0bbc6" />
  <rect
     x="654.97998"
     y="185.72"
     width="293.64001"
     height="20"
     id="rect7"
     style="fill:#b0bbc6" />
  <rect
     x="6.3733044"
     y="45.127338"
     width="174.53999"
     height="20"
     id="rect9"
     style="fill:#b0bbc6" />
  <circle
     cx="1320"
     cy="122.6"
     r="93.123001"
     id="circle10"
     style="fill:#becad5;fill-opacity:1" />
  <rect
     x="998.01001"
     y="112.6"
     width="321.95999"
     height="20"
     id="rect10"
     style="fill:#b0bbc6" />
  <rect
     x="1133.3"
     y="195.72"
     width="366.67001"
     height="20"
     id="rect8"
     style="fill:#b0bbc6" />
  <rect
     style="fill:#9fa7ae;fill-opacity:1;stroke:none;stroke-width:11.0698;stroke-miterlimit:26.1"
     id="rect13-3"
     width="34.292976"
     height="13.699179"
     x="178.81352"
     y="-480"
     transform="scale(1,-1)" />
  <rect
     style="fill:#9fa7ae;fill-opacity:1;stroke:none;stroke-width:11.0698;stroke-miterlimit:26.1"
     id="rect13-3-6"
     width="34.292976"
     height="13.699179"
     x="220.40746"
     y="-456.3671"
     transform="scale(1,-1)" />
  <rect
     style="fill:#9fa7ae;fill-opacity:1;stroke:none;stroke-width:11.0698;stroke-miterlimit:26.1"
     id="rect13-3-5"
     width="34.292976"
     height="13.699179"
     x="26.568153"
     y="-482.70801"
     transform="scale(1,-1)" />
  <rect
     style="fill:#9fa7ae;fill-opacity:1;stroke:none;stroke-width:11.0698;stroke-miterlimit:26.1"
     id="rect13-3-56"
     width="34.292976"
     height="13.699179"
     x="259"
     y="-484.69919"
     transform="scale(1,-1)" />
  <rect
     style="fill:#9fa7ae;fill-opacity:1;stroke:none;stroke-width:11.0698;stroke-miterlimit:26.1"
     id="rect13-3-9"
     width="34.292976"
     height="13.699179"
     x="74.513222"
     y="-456.3671"
     transform="scale(1,-1)" />
  <rect
     style="fill:#9fa7ae;fill-opacity:1;stroke:none;stroke-width:11.0698;stroke-miterlimit:26.1"
     id="rect13-5"
     width="34.292976"
     height="13.699179"
     x="183.63857"
     y="-377.94839"
     transform="scale(1,-1)" />
  <rect
     style="fill:#9fa7ae;fill-opacity:1;stroke:none;stroke-width:11.0698;stroke-miterlimit:26.1"
     id="rect13-6"
     width="34.292976"
     height="13.699179"
     x="37.498611"
     y="-316.8804"
     transform="scale(1,-1)" />
  <rect
     style="fill:#b0bbc6;fill-opacity:1;stroke:none;stroke-width:22.8877;stroke-miterlimit:26.1"
     id="rect13-27"
     width="81.993561"
     height="24.492954"
     x="54.645103"
     y="-341.37335"
     transform="scale(1,-1)" />
  <rect
     style="fill:#b0bbc6;fill-opacity:1;stroke:none;stroke-width:19.7919;stroke-miterlimit:26.1"
     id="rect13-62"
     width="61.312893"
     height="24.492954"
     x="139.47215"
     y="-402.44135"
     transform="scale(1,-1)" />
  <rect
     style="fill:#b0bbc6;fill-opacity:1;stroke:none;stroke-width:20.7144;stroke-miterlimit:26.1"
     id="rect13-61"
     width="67.161743"
     height="24.492954"
     x="-212.4424"
     y="-284.29529"
     transform="scale(-1)" />
  <rect
     style="fill:#9fa7ae;fill-opacity:1;stroke:none;stroke-width:11.0698;stroke-miterlimit:26.1"
     id="rect13-02"
     width="34.292976"
     height="13.699179"
     x="178.14941"
     y="-266.65192"
     transform="scale(1,-1)" />
  <path
     style="fill:#9fa7ae;fill-opacity:1;stroke:none;stroke-width:9.4;stroke-miterlimit:26.1;stroke-opacity:1"
     id="path13-0"
     d="m 526.36948,285.74343 -12.16241,7.59351 -0.6397,14.32397 -10.98025,-9.22061 -13.82058,3.81796 5.37623,-13.29216 -7.90189,-11.96435 14.30295,1.00561 8.93695,-11.21233 3.46347,13.91365 z"
     transform="translate(-485.24089,-123.79503)" />
  <path
     style="fill:#9fa7ae;fill-opacity:1;stroke:none;stroke-width:9.4;stroke-miterlimit:26.1;stroke-opacity:1"
     id="path13-3"
     d="m 382.58436,149.67422 -12.16241,7.59351 -0.6397,14.32397 -10.98025,-9.22061 -13.82058,3.81796 5.37623,-13.29216 -7.90189,-11.96435 14.30295,1.00561 8.93695,-11.21233 3.46347,13.91365 z" />
  <path
     style="fill:#b0bbc6;fill-opacity:1;stroke:none;stroke-width:9.4;stroke-miterlimit:26.1;stroke-opacity:1"
     id="path13-3-2"
     d="m 186.1286,223.9484 -12.16241,7.59351 -0.6397,14.32397 -10.98025,-9.22061 -13.82058,3.81796 5.37623,-13.29216 L 146,215.20672 160.30295,216.21233 169.2399,205 l 3.46347,13.91365 z" />
  <path
     style="fill:#9fa7ae;fill-opacity:1;stroke:none;stroke-width:9.4;stroke-miterlimit:26.1;stroke-opacity:1"
     id="path13-3-1"
     d="m 253.86902,53.000647 -12.16241,7.59351 -0.6397,14.32397 -10.98025,-9.22061 -13.82058,3.81796 5.37623,-13.29216 -7.90189,-11.96435 14.30295,1.00561 8.93695,-11.21233 3.46347,13.91365 z" />
  <path
     style="fill:#9fa7ae;fill-opacity:1;stroke:none;stroke-width:9.4;stroke-miterlimit:26.1;stroke-opacity:1"
     id="path13-3-9"
     d="m 170.1286,377.9484 -12.16241,7.59351 -0.6397,14.32397 -10.98025,-9.22061 -13.82058,3.81796 5.37623,-13.29216 L 130,369.20672 144.30295,370.21233 153.2399,359 l 3.46347,13.91365 z" />
  <path
     style="fill:#9fa7ae;fill-opacity:1;stroke:none;stroke-width:9.4;stroke-miterlimit:26.1;stroke-opacity:1"
     id="path13-3-62"
     d="m 188.1286,447.9484 -12.16241,7.59351 -0.6397,14.32397 -10.98025,-9.22061 -13.82058,3.81796 5.37623,-13.29216 L 148,439.20672 162.30295,440.21233 171.2399,429 l 3.46347,13.91365 z" />
  <path
     style="fill:#9fa7ae;fill-opacity:1;stroke:none;stroke-width:9.4;stroke-miterlimit:26.1;stroke-opacity:1"
     id="path13-3-28"
     d="m 1105.6955,439.85227 -12.1624,7.59351 -0.6397,14.32397 -10.9803,-9.22061 -13.8205,3.81796 5.3762,-13.29216 -7.9019,-11.96435 14.303,1.00561 8.9369,-11.21233 3.4635,13.91365 z" />
  <path
     style="fill:#9fa7ae;fill-opacity:1;stroke:none;stroke-width:9.4;stroke-miterlimit:26.1;stroke-opacity:1"
     id="path13-3-73"
     d="m 1426.6215,461.40185 -12.1624,7.59351 -0.6397,14.32397 -10.9803,-9.22061 -13.8205,3.81796 5.3762,-13.29216 -7.9019,-11.96435 14.3029,1.00561 8.937,-11.21233 3.4635,13.91365 z" />
  <path
     style="fill:#9fa7ae;fill-opacity:1;stroke:none;stroke-width:9.4;stroke-miterlimit:26.1;stroke-opacity:1"
     id="path13"
     d="m 526.36948,285.74343 -12.16241,7.59351 -0.6397,14.32397 -10.98025,-9.22061 -13.82058,3.81796 5.37623,-13.29216 -7.90189,-11.96435 14.30295,1.00561 8.93695,-11.21233 3.46347,13.91365 z"
     transform="translate(-75.964697,-31.256838)" />
  <path
     style="fill:#9fa7ae;fill-opacity:1;stroke:none;stroke-width:9.4;stroke-miterlimit:26.1;stroke-opacity:1"
     id="path13-7"
     d="m 603.67386,173.67474 -12.16241,7.59351 -0.6397,14.32397 -10.98025,-9.22061 -13.82058,3.81796 5.37623,-13.29216 -7.90189,-11.96435 14.30295,1.00561 8.93695,-11.21233 3.46347,13.91365 z" />
  <path
     style="fill:#9fa7ae;fill-opacity:1;stroke:none;stroke-width:9.4;stroke-miterlimit:26.1;stroke-opacity:1"
     id="path13-9"
     d="m 886.7199,55.354511 -12.16241,7.59351 -0.6397,14.32397 -10.98025,-9.22061 -13.82058,3.81796 5.37623,-13.29216 -7.90189,-11.96435 14.30295,1.00561 8.93695,-11.21233 3.46347,13.91365 z" />
  <path
     style="fill:#9fa7ae;fill-opacity:1;stroke:none;stroke-width:9.4;stroke-miterlimit:26.1;stroke-opacity:1"
     id="path13-6"
     d="m 818.80785,147.71923 -12.16241,7.59351 -0.6397,14.32397 -10.98025,-9.22061 -13.82058,3.81796 5.37623,-13.29216 -7.90189,-11.96435 14.30295,1.00561 8.93695,-11.21233 3.46347,13.91365 z" />
  <path
     style="fill:#9fa7ae;fill-opacity:1;stroke:none;stroke-width:9.4;stroke-miterlimit:26.1;stroke-opacity:1"
     id="path13-62"
     d="m 526.36948,285.74343 -12.16241,7.59351 -0.6397,14.32397 -10.98025,-9.22061 -13.82058,3.81796 5.37623,-13.29216 -7.90189,-11.96435 14.30295,1.00561 8.93695,-11.21233 3.46347,13.91365 z"
     transform="translate(561.75911,-52.795028)" />
  <path
     style="fill:#9fa7ae;fill-opacity:1;stroke:none;stroke-width:9.4;stroke-miterlimit:26.1;stroke-opacity:1"
     id="path13-1"
     d="m 1286.4918,396.17706 -12.1625,7.59351 -0.6397,14.32397 -10.9802,-9.22061 -13.8206,3.81796 5.3762,-13.29216 -7.9018,-11.96435 14.3029,1.00561 8.937,-11.21233 3.4634,13.91365 z" />
  <path
     style="fill:#9fa7ae;fill-opacity:1;stroke:none;stroke-width:9.4;stroke-miterlimit:26.1;stroke-opacity:1"
     id="path13-79"
     d="m 526.36948,285.74343 -12.16241,7.59351 -0.6397,14.32397 -10.98025,-9.22061 -13.82058,3.81796 5.37623,-13.29216 -7.90189,-11.96435 14.30295,1.00561 8.93695,-11.21233 3.46347,13.91365 z"
     transform="translate(930.7591,5.204972)" />
  <path
     style="fill:#9fa7ae;fill-opacity:1;stroke:none;stroke-width:9.4;stroke-miterlimit:26.1;stroke-opacity:1"
     id="path13-3-23"
     d="m 517.47026,404.45231 -12.16241,7.59351 -0.6397,14.32397 -10.98025,-9.22061 -13.82058,3.81796 5.37623,-13.29216 -7.90189,-11.96435 14.30295,1.00561 8.93695,-11.21233 3.46347,13.91365 z" />
  <path
     style="fill:#9fa7ae;fill-opacity:1;stroke:none;stroke-width:9.4;stroke-miterlimit:26.1;stroke-opacity:1"
     id="path13-3-59"
     d="m 919.30406,381.49992 -12.16241,7.59351 -0.6397,14.32397 -10.98025,-9.22061 -13.82058,3.81796 5.37623,-13.29216 -7.90189,-11.96435 14.30295,1.00561 8.93695,-11.21233 3.46347,13.91365 z" />
  <path
     style="fill:#9fa7ae;fill-opacity:1;stroke:none;stroke-width:9.4;stroke-miterlimit:26.1;stroke-opacity:1"
     id="path13-3-12"
     d="m 745.40072,316.31053 -12.16241,7.59351 -0.6397,14.32397 -10.98025,-9.22061 -13.82058,3.81796 5.37623,-13.29216 -7.90189,-11.96435 14.30295,1.00561 8.93695,-11.21233 3.46347,13.91365 z" />
  <path
     style="fill:#9fa7ae;fill-opacity:1;stroke:none;stroke-width:9.4;stroke-miterlimit:26.1;stroke-opacity:1"
     id="path13-3-3"
     d="m 1204.1276,41.079293 -12.1624,7.59351 -0.6397,14.32397 -10.9803,-9.22061 -13.8205,3.81796 5.3762,-13.29216 -7.9019,-11.96435 14.303,1.00561 8.9369,-11.21233 3.4635,13.91365 z" />
</svg>
